<?xml version="1.0" encoding="UTF-8"?>
<!DOCTYPE svg  PUBLIC '-//W3C//DTD SVG 1.0//EN'  'http://www.w3.org/TR/2001/REC-SVG-20010904/DTD/svg10.dtd'>
<svg clip-rule="evenodd" fill-rule="evenodd" image-rendering="optimizeQuality" shape-rendering="geometricPrecision" text-rendering="geometricPrecision" version="1.0" viewBox="0 0 1181 1181" xml:space="preserve" xmlns="http://www.w3.org/2000/svg">
 <defs>
  <style type="text/css">
   <![CDATA[
    .str0 {stroke:var(--text-color);stroke-width:41.6654;stroke-linecap:round;stroke-linejoin:round}
    .fil0 {fill:none}
   ]]>
  </style>
 </defs>
   <path class="fil0 str0" d="m298 240c222 180 166 321-75 526 274-162 453-216 764-270-83-112-195-147-306-175-96-25-307-39-383-81z"/>
   <path class="fil0 str0" d="m568 300c-40-66-49-93-71-168-45 16-115 36-162 66-8 5-52 33-37 42l8 4c56 27 168 42 262 56z"/>
   <path class="fil0 str0" d="m223 766c-77 82-80 147 22 204 108 61 208 67 328 78 72-184 104-280 81-478-141 43-270 101-431 196z"/>
</svg>
