<?xml version="1.0" encoding="UTF-8"?>
<!DOCTYPE svg  PUBLIC '-//W3C//DTD SVG 1.0//EN'  'http://www.w3.org/TR/2001/REC-SVG-20010904/DTD/svg10.dtd'>
<svg clip-rule="evenodd" fill-rule="evenodd" image-rendering="optimizeQuality" shape-rendering="geometricPrecision" text-rendering="geometricPrecision" version="1.0" viewBox="0 0 1181 1181" xml:space="preserve" xmlns="http://www.w3.org/2000/svg">
 <defs>
  <style type="text/css">
   <![CDATA[
    .str0 {stroke:var(--text-color);stroke-width:41.6654}
    .fil0 {fill:none}
    .fil1 {fill:var(--text-color)}
   ]]>
  </style>
 </defs>
  <path class="fil0 str0" d="m835 168c87 50 49 280-86 514-135 233-315 382-403 331-87-50-49-280 86-514 135-233 315-382 403-331z"/>
  <path class="fil0 str0" d="m1079 591c0 100-219 182-488 182-270 0-489-82-489-182 0-101 219-183 489-183 269 0 488 82 488 183z"/>
  <path class="fil0 str0" d="m835 1013c-88 51-268-98-403-331-135-234-173-464-86-514 88-51 268 98 403 331 135 234 173 464 86 514z"/>
  <circle class="fil1" transform="matrix(.2151 .12419 -.12419 .2151 590.55 590.55)" r="337"/>
</svg>
