<?xml version="1.0" encoding="UTF-8"?>
<!DOCTYPE svg  PUBLIC '-//W3C//DTD SVG 1.0//EN'  'http://www.w3.org/TR/2001/REC-SVG-20010904/DTD/svg10.dtd'>
<svg clip-rule="evenodd" fill-rule="evenodd" image-rendering="optimizeQuality" shape-rendering="geometricPrecision" text-rendering="geometricPrecision" version="1.0" viewBox="0 0 1181 1181" xml:space="preserve" xmlns="http://www.w3.org/2000/svg">
 <defs>
  <style type="text/css">
   <![CDATA[
    .str0 {stroke:var(--text-color);stroke-width:41.6654;stroke-linecap:round;stroke-linejoin:round}
    .fil0 {fill:none}
   ]]>
  </style>
 </defs>
  <path class="fil0 str0" d="m136 136h910v910h-910v-910zm412 469v349 7h-7-67-7v-7-349h-103-7v-7-57-7h7 286 7v7 57 7h-7-102zm142 260l58-25 7-3 3 8c2 8 5 16 10 22 4 6 9 12 15 16s13 8 21 10 17 3 27 3c9 0 17-1 24-4 7-2 14-6 19-11 5-4 9-10 11-16 3-7 4-15 4-23 0-10-4-20-13-30-10-10-24-20-43-29-2-1-4-1-8-3-2-1-3-2-5-3-23-11-43-22-58-32-16-10-28-20-36-30s-14-20-18-32-6-25-6-38c0-18 3-34 9-49 6-14 15-27 28-38 12-11 26-20 41-25 16-6 34-8 53-8 16 0 30 1 44 4 13 3 25 8 36 14s20 14 28 23 13 20 18 31l2 6-6 3-52 27-6 3-3-5c-4-6-8-12-12-16-4-5-9-8-13-11-4-2-9-4-14-6-5-1-11-2-17-2-8 0-15 1-22 3-6 3-11 6-16 10s-8 8-10 14c-3 5-4 11-4 18 0 11 6 21 16 31 11 11 28 22 50 32h1l4 3c2 0 3 1 4 1 21 10 38 19 52 29 15 9 26 19 34 28 17 20 25 44 25 72 0 21-3 39-10 55-6 17-16 31-29 43-13 13-29 22-46 28-18 6-37 9-59 9-37 0-67-9-91-26-12-8-21-19-29-31s-14-26-17-42l-2-6 1-2z"/>
</svg>
