<?xml version="1.0" encoding="UTF-8" standalone="no"?>
<!DOCTYPE svg PUBLIC "-//W3C//DTD SVG 1.1//EN" "http://www.w3.org/Graphics/SVG/1.1/DTD/svg11.dtd">
<svg width="100%" height="100%" viewBox="0 0 355 355" version="1.1" xmlns="http://www.w3.org/2000/svg" xmlns:xlink="http://www.w3.org/1999/xlink" xml:space="preserve" xmlns:serif="http://www.serif.com/" style="fill-rule:evenodd;clip-rule:evenodd;stroke-linecap:round;stroke-linejoin:round;stroke-miterlimit:1.5;">
    <g transform="matrix(4.263,0,0,4.263,-3647.9,-372.975)">
        <g transform="matrix(0.476146,0,0,0.476146,-2151.08,-548.988)">
            <path d="M6424.41,1427C6424.2,1426.51 6423.93,1426.06 6423.59,1425.64C6422.42,1424.18 6420.66,1423.33 6418.79,1423.33L6410.36,1423.33C6407.43,1423.33 6404.91,1425.39 6404.32,1428.26L6404.06,1429.54L6403.8,1428.27C6403.22,1425.4 6400.7,1423.33 6397.77,1423.33L6387.73,1423.33C6384.77,1423.33 6382.24,1425.43 6381.68,1428.33L6381.55,1429L6381.38,1428.2C6380.78,1425.36 6378.27,1423.33 6375.36,1423.33L6366.21,1423.33C6364.34,1423.33 6362.57,1424.18 6361.4,1425.64C6360.24,1427.09 6359.79,1429 6360.2,1430.83L6370.07,1475.21C6370.7,1478.03 6373.19,1480.03 6376.08,1480.03L6386.12,1480.03C6389.04,1480.03 6391.56,1477.98 6392.15,1475.12L6392.5,1473.41L6392.84,1475.08C6393.41,1477.96 6395.94,1480.03 6398.88,1480.03L6408.86,1480.03C6410.73,1480.03 6412.43,1479.19 6413.57,1477.83C6414.74,1479.22 6416.46,1480.03 6418.29,1480.03L6426.83,1480.03C6429.66,1480.03 6432.14,1478.09 6432.81,1475.34L6434.16,1469.84C6434.16,1469.84 6437.5,1469.84 6437.5,1469.84C6437.5,1469.84 6438.81,1475.31 6438.81,1475.31C6439.47,1478.08 6441.95,1480.03 6444.8,1480.03L6453.67,1480.03C6455.58,1480.03 6457.39,1479.14 6458.55,1477.62C6459.72,1476.11 6460.11,1474.14 6459.62,1472.29L6447.81,1427.9C6447.09,1425.21 6444.65,1423.33 6441.86,1423.33L6430.05,1423.33C6427.58,1423.33 6425.39,1424.8 6424.41,1427ZM6393.4,1445.74C6393.76,1448.14 6394.24,1450.75 6394.94,1454.18L6398.88,1473.87L6408.86,1473.87L6418.79,1429.49L6410.36,1429.49L6406.47,1448.48C6405.31,1454.06 6404.59,1458.99 6404.31,1462.92L6404.09,1462.92C6403.65,1458.8 6403.15,1456.02 6402.15,1451.14L6397.77,1429.49L6387.73,1429.49L6383.57,1451.2C6382.79,1455.38 6382.18,1457.92 6381.68,1463.05L6381.46,1463.05C6381.29,1458.3 6380.24,1452.35 6379.19,1447.41L6375.36,1429.49L6366.21,1429.49L6376.08,1473.87L6386.12,1473.87L6390.61,1452.15C6391.09,1449.91 6391.45,1447.88 6391.78,1445.69L6392.47,1446.31C6392.4,1445.85 6392.25,1444.76 6392.11,1443.41C6392.24,1442.46 6392.37,1441.45 6392.5,1440.38L6392.72,1440.38C6392.9,1442.14 6393.1,1443.76 6393.36,1445.47C6393.21,1445.72 6393.09,1445.94 6392.98,1446.11L6393.4,1445.74ZM6430.05,1429.49L6418.29,1473.87L6426.83,1473.87L6429.32,1463.68L6442.36,1463.68L6444.8,1473.87L6453.67,1473.87L6441.86,1429.49L6430.05,1429.49ZM6436.71,1440.04C6437.24,1442.61 6437.92,1445.41 6438.92,1449.5L6440.42,1455.7L6431.27,1455.7L6432.87,1449.24C6433.8,1445.5 6434.47,1442.64 6435.02,1440.04L6436.71,1440.04Z" style="fill:var(--text-color);"/>
        </g>
        <g transform="matrix(0.476146,0,0,0.476146,-2151.08,-548.988)">
            <path d="M6465.96,1360.1L6465.96,1487.85L6338.22,1487.85L6338.22,1360.1L6386.98,1360.1C6386.98,1368.44 6393.75,1375.21 6402.09,1375.21C6410.43,1375.21 6417.2,1368.44 6417.2,1360.1L6465.96,1360.1Z" style="fill:none;stroke:var(--text-color);stroke-width:6.16px;"/>
        </g>
    </g>
</svg>
