<?xml version="1.0" encoding="UTF-8"?>
<!DOCTYPE svg  PUBLIC '-//W3C//DTD SVG 1.0//EN'  'http://www.w3.org/TR/2001/REC-SVG-20010904/DTD/svg10.dtd'>
<svg clip-rule="evenodd" fill-rule="evenodd" image-rendering="optimizeQuality" shape-rendering="geometricPrecision" text-rendering="geometricPrecision" version="1.0" viewBox="0 0 945 945" xml:space="preserve" xmlns="http://www.w3.org/2000/svg">
 <defs>
  <style type="text/css">
   <![CDATA[
    .str1 {stroke:var(--text-color);stroke-width:41.6654}
    .str3 {stroke:var(--text-color);stroke-width:41.6654;stroke-linejoin:round}
    .str0 {stroke:var(--text-color);stroke-width:41.6654;stroke-linecap:round}
    .str2 {stroke:var(--text-color);stroke-width:41.6654;stroke-linecap:round}
    .str4 {stroke:var(--text-color);stroke-width:41.6654;stroke-linecap:round;stroke-linejoin:round}
    .fil1 {fill:none}
    .fil0 {fill:var(--text-color)}
    .fil3 {fill:var(--text-color)}
    .fil2 {fill:white}
   ]]>
  </style>
 </defs>
   <path class="fil0" d="m1167-1906c-37-1-89-1-156-1s-120 0-156 1c-9 0-17 2-24 5-9 5-17 11-25 19-12 12-17 33-22 53-3 10-5 20-9 30-4 12-7 24-10 37-4 15-8 31-13 48-1 1-1 3-2 5-1 6 0 13 2 18 2 3 4 6 7 7h345c9-1 18-6 25-12 11-10 18-25 22-39l35-126c2-9 3-16 3-23 0-8-1-13-3-17-2-2-5-3-8-4-4-1-7-1-11-1zm0-42c-104-1-208-1-312 0-31 0-57 15-79 37-27 27-29 65-40 99-9 28-14 57-24 84-12 35 3 78 42 85h350c45-2 77-42 87-81 0 0 35-126 35-127 16-63-10-97-59-97zm-828 475c9-31 28-105 34-129 16-64 29-130 94-165 20-11 41-17 63-19 40-4 80-1 120-2 17 0 23 7 19 22-8 33-17 66-26 98-12 43 9 86 69 87 76 2 151 1 227 1h86c15 0 23 6 18 22-8 31-36 140-73 171-26 22-54 37-90 37h-230v-1c-80 0-160 2-240 0-64-2-89-40-71-122zm239 81h72 230 1c11 0 21-2 31-7 11-4 21-12 32-20 20-17 39-78 51-119h-56-70c-53 0-105 0-158-1-13 0-25-2-36-5-26-8-45-22-58-40-13-19-19-41-19-63 1-11 2-22 5-32 5-16 9-32 13-48 1-4 3-11 5-19h-16c-24-1-47-1-71 1-9 1-16 2-24 5-8 2-16 5-23 9-45 25-58 76-71 128l-3 11c-3 13-10 41-17 68-6 22-12 44-16 60-7 30-7 50 0 61 4 6 14 10 31 10 56 2 111 1 167 1z"/>
   <path class="fil1 str0" d="m-2484-1246c-157-157-157-412 0-569s412-157 569 0c158 157 158 412 0 569"/>
   <path class="fil1 str0" d="m-2199-1532l227-226"/>
   <path class="fil1 str0" d="m-2426-1305l40-40"/>
   <path class="fil1 str0" d="m-2520-1532h57"/>
   <path class="fil1 str0" d="m-2426-1758l40 40"/>
   <path class="fil1 str0" d="m-2199-1852v57"/>
   <path class="fil1 str0" d="m-1878-1532h-57"/>
   <path class="fil1 str0" d="m-1972-1305l-41-40"/>
   <rect class="fil1 str1" x="1577" y="-1987" width="790" height="189"/>
   <rect class="fil1 str1" x="1577" y="-1723" width="790" height="189"/>
   <rect class="fil1 str1" x="1577" y="-1723" width="790" height="189"/>
   <rect class="fil1 str1" x="1577" y="-1459" width="790" height="189"/>
   <rect class="fil1 str1" x="1577" y="-1459" width="790" height="189"/>
   <path class="fil1 str0" d="m1657-1893h155"/>
   <path class="fil1 str0" d="m1657-1629h402"/>
   <path class="fil1 str0" d="m1657-1364h253"/>
    <path class="fil1 str0" d="m3112-1840c56 49 102 103 83 182-28 82-94 140-146 208-45 58-93 128-163 157-74 31-153-14-207-64-43-40-83-100-73-161 12-72 86-130 133-180 56-59 90-138 163-181 75-44 144-9 210 39z"/>
   <path class="fil1 str0" d="m2704-1721c-12 16 9 22 20 23 10 1 9 6 17-2 1-2 3-3 4-5 4-4 7-8 11-12-9-9-21-15-34-17-7 0-22 3-18 13z"/>
   <path class="fil1 str0" d="m2889-1870c-37-63 64-96 83-29-22 0-46 6-70 20-4 3-9 6-13 9z"/>
   <path class="fil1 str0" d="m3198-1713c71 8 51 113-16 86 5-10 9-20 13-31 5-20 5-38 3-55z"/>
   <path class="fil1 str0" d="m2842-1283c5 17 7 56-19 52-29 0-11-38-21-55 13 2 26 4 40 3z"/>
   <path class="fil1 str0" d="m2618-1435c-15-10-33-4-50-8-16-3-13-14-12-17-1-2-2 0-2-5 3-24 33-18 50-17 0 1 1 1 2 2 2 14 6 27 12 41v4z"/>
   <path class="fil1 str0" d="m3064-1412c-13 14-22-6-25-16-1-3-2-5-2-6 4-5 8-11 12-16 2-3 5-7 7-10 9 8 16 18 18 29 2 6 1 22-10 19z"/>
   <path class="fil2 str0" d="m3044-1736c-41 68 69 136 107 65 34-64-63-122-107-65z"/>
   <path class="fil2 str0" d="m2920-1826c-31 63 62 121 104 67 50-65-62-141-104-67z"/>
   <path class="fil2 str0" d="m2985-1653c-6 7-12 17-20 23-5 2-9-1-14-2-4-5-5-11-3-17 6-10 15-17 23-26l2 2c6 6 9 13 12 20z"/>
   <path class="fil0" d="m2964-1803c7-8 7-20-1-27s-20-5-27 3-7 21 1 27c8 7 20 6 27-3z"/>
   <ellipse class="fil0" transform="matrix(.090059 .07808 -.07808 .090059 3069.9 -1717.5)" rx="152" ry="167"/>
   <path class="fil2 str0" d="m2944-1688c-17 12-30 45 4 38 6-10 14-17 22-25-7-5-19-8-26-13z"/>
   <path class="fil1 str2" d="m2974-1716c-12-9-33-4-37 12-4 21 27 21 36 31 12 11 11 33 31 31 21-2 16-28 8-44l-38-30z"/>
   <circle class="fil1 str1" cx="2900" cy="-1580" r="423"/>
   <rect class="fil1 str1" x="99" y="190" width="748" height="564" rx="125" ry="125"/>
   <circle class="fil3" cx="472" cy="472" r="42"/>
   <circle class="fil3" cx="300" cy="472" r="42"/>
   <circle class="fil3" cx="645" cy="472" r="42"/>
   <rect class="fil1 str1" x="-1706" y="-1947" width="776" height="776" rx="118" ry="118"/>
   <rect class="fil1 str1" x="-1594" y="-1874" width="552" height="552" rx="84" ry="84"/>
   <path class="fil1 str0" d="m-1492-1732h71v149c-6 39-35 55-81 82"/>
   <rect class="fil1 str0" x="-1351" y="-1782" width="118" height="205" rx="118" ry="118"/>
   <path class="fil1 str0" d="m-1277-1604l60 44"/>
   <path class="fil1 str3" d="m-359-2019l192 111 193 111v222 222l-193 111-192 111-192-111-192-111v-222-222l192-111 192-111z"/>
   <path class="fil1 str4" d="m-561-1455v-249l113 249 116-249-1 249"/>
   <path class="fil1 str4" d="m-122-1682c-33-21-80-22-130-22v125 124c50 0 97-1 130-22 79-49 80-156 0-205z"/>
   <circle class="fil3" cx="-647" cy="-1455" r="22"/>
</svg>
