<?xml version="1.0" encoding="UTF-8"?>
<!DOCTYPE svg  PUBLIC '-//W3C//DTD SVG 1.0//EN'  'http://www.w3.org/TR/2001/REC-SVG-20010904/DTD/svg10.dtd'>
<svg clip-rule="evenodd" fill-rule="evenodd" image-rendering="optimizeQuality" shape-rendering="geometricPrecision" text-rendering="geometricPrecision" version="1.0" viewBox="0 0 945 945" xml:space="preserve" xmlns="http://www.w3.org/2000/svg">
 <defs>
  <style type="text/css">
   <![CDATA[
    .fil0 {fill:var(--text-color)}
   ]]>
  </style>
 </defs>
   <path class="fil0" d="m857 215h-156-156v1c-9 0-17 2-24 5-9 5-17 11-25 19-12 12-17 32-22 53-3 10-5 20-8 30-4 12-7 24-10 36-4 16-8 32-14 48-1 2-1 4-1 5-2 7-1 13 1 19 2 3 4 5 7 7h345c10-1 18-6 25-13 11-10 19-24 22-38l35-126h1c2-9 3-17 3-23 0-8-2-14-4-17-2-2-4-4-8-4-3-1-7-2-11-2zm0-41c-104-1-208-1-312 0-31 0-57 15-78 37-28 27-30 65-41 99-9 28-14 57-23 84-13 35 2 78 41 85h350c46-2 77-42 88-81l35-127c15-64-11-97-60-97zm-827 474c8-30 27-104 33-128 16-64 29-130 94-165 20-11 41-18 64-20 39-3 80 0 120-1 16 0 22 7 18 22-8 33-16 66-25 98-13 43 8 86 69 87 75 2 150 1 226 1h86c15 0 23 5 19 22-9 31-36 140-74 171-26 21-54 36-89 36h-231c-80 0-160 1-240 0-63-2-89-40-70-123zm238 82c38 0 67-1 72-1v1h231c11 0 22-3 31-7 11-5 22-12 32-20 20-17 40-79 51-119h-56v-1c-23 0-47 0-70 1-53 0-105 0-157-1-14-1-26-2-37-5-26-8-45-22-58-41-13-18-19-40-18-62 0-11 2-22 5-32 4-17 8-33 12-48 2-4 3-11 5-19-5 0-11 0-16-1-23 0-47 0-71 2-8 1-16 2-24 4-8 3-15 6-23 10-45 25-58 76-71 128l-3 11c-3 13-10 41-17 68-6 22-11 44-16 60-7 30-7 50 0 60 4 7 14 11 31 11 56 1 111 1 167 1z"/>
</svg>
