<?xml version="1.0" encoding="UTF-8"?>
<!DOCTYPE svg  PUBLIC '-//W3C//DTD SVG 1.0//EN'  'http://www.w3.org/TR/2001/REC-SVG-20010904/DTD/svg10.dtd'>
<svg clip-rule="evenodd" fill-rule="evenodd" image-rendering="optimizeQuality" shape-rendering="geometricPrecision" text-rendering="geometricPrecision" version="1.0" viewBox="0 0 945 945" xml:space="preserve" xmlns="http://www.w3.org/2000/svg">
 <defs>
  <style type="text/css">
   <![CDATA[
    .str1 {stroke:var(--text-color);stroke-width:41.6654}
    .str3 {stroke:var(--text-color);stroke-width:41.6654;stroke-linejoin:round}
    .str0 {stroke:var(--text-color);stroke-width:41.6654;stroke-linecap:round}
    .str2 {stroke:var(--text-color);stroke-width:41.6654;stroke-linecap:round}
    .str4 {stroke:var(--text-color);stroke-width:41.6654;stroke-linecap:round;stroke-linejoin:round}
    .fil1 {fill:none}
    .fil0 {fill:var(--text-color)}
    .fil3 {fill:var(--text-color)}
    .fil2 {fill:white}
   ]]>
  </style>
 </defs>
   <path class="fil0" d="m857 215h-156-156v1c-9 0-17 2-24 5-9 5-17 11-25 19-12 12-17 32-22 53-3 10-5 20-8 30-4 12-7 24-10 36-4 16-8 32-14 48-1 2-1 4-1 5-2 7-1 13 1 19 2 3 4 5 7 7h345c10-1 18-6 25-13 11-10 19-24 22-38l35-126h1c2-9 3-17 3-23 0-8-2-14-4-17-2-2-4-4-8-4-3-1-7-2-11-2zm0-41c-104-1-208-1-312 0-31 0-57 15-78 37-28 27-30 65-41 99-9 28-14 57-23 84-13 35 2 78 41 85h350c46-2 77-42 88-81l35-127c15-64-11-97-60-97zm-827 474c8-30 27-104 33-128 16-64 29-130 94-165 20-11 41-18 64-20 39-3 80 0 120-1 16 0 22 7 18 22-8 33-16 66-25 98-13 43 8 86 69 87 75 2 150 1 226 1h86c15 0 23 5 19 22-9 31-36 140-74 171-26 21-54 36-89 36h-231c-80 0-160 1-240 0-63-2-89-40-70-123zm238 82c38 0 67-1 72-1v1h231c11 0 22-3 31-7 11-5 22-12 32-20 20-17 40-79 51-119h-56v-1c-23 0-47 0-70 1-53 0-105 0-157-1-14-1-26-2-37-5-26-8-45-22-58-41-13-18-19-40-18-62 0-11 2-22 5-32 4-17 8-33 12-48 2-4 3-11 5-19-5 0-11 0-16-1-23 0-47 0-71 2-8 1-16 2-24 4-8 3-15 6-23 10-45 25-58 76-71 128l-3 11c-3 13-10 41-17 68-6 22-11 44-16 60-7 30-7 50 0 60 4 7 14 11 31 11 56 1 111 1 167 1z"/>
   <path class="fil1 str0" d="m-2484-1246c-157-157-157-412 0-569s412-157 569 0c158 157 158 412 0 569"/>
   <path class="fil1 str0" d="m-2199-1532l227-226"/>
   <path class="fil1 str0" d="m-2426-1305l40-40"/>
   <path class="fil1 str0" d="m-2520-1532h57"/>
   <path class="fil1 str0" d="m-2426-1758l40 40"/>
   <path class="fil1 str0" d="m-2199-1852v57"/>
   <path class="fil1 str0" d="m-1878-1532h-57"/>
   <path class="fil1 str0" d="m-1972-1305l-41-40"/>
   <rect class="fil1 str1" x="1594" y="-1516" width="790" height="189"/>
   <rect class="fil1 str1" x="1594" y="-1251" width="790" height="189"/>
   <rect class="fil1 str1" x="1594" y="-1251" width="790" height="189"/>
   <rect class="fil1 str1" x="1594" y="-987" width="790" height="189"/>
   <rect class="fil1 str1" x="1594" y="-987" width="790" height="189"/>
   <path class="fil1 str0" d="m1674-1421h154"/>
   <path class="fil1 str0" d="m1674-1157h402"/>
   <path class="fil1 str0" d="m1674-892h253"/>
    <path class="fil1 str0" d="m3368-1423c57 49 103 103 84 181-28 83-94 141-146 209-45 58-93 128-163 157-74 31-153-14-207-65-43-39-83-99-73-160 12-72 86-130 133-180 56-60 90-138 163-181 75-44 144-9 209 39z"/>
   <path class="fil1 str0" d="m2961-1304c-12 15 9 21 20 22 10 2 8 7 17-1 1-2 3-4 4-5 4-4 7-8 11-12-9-9-21-16-34-17-7 0-22 2-18 13z"/>
   <path class="fil1 str0" d="m3146-1454c-37-63 64-96 83-28-23 0-46 6-70 20-4 3-9 5-13 8z"/>
   <path class="fil1 str0" d="m3455-1296c71 7 51 112-16 86 5-10 9-21 13-32 5-19 5-37 3-54z"/>
   <path class="fil1 str0" d="m3099-866c5 17 7 56-19 51-29 1-11-38-21-55 13 3 26 4 40 4z"/>
   <path class="fil1 str0" d="m2875-1019c-15-9-33-3-50-7-16-3-13-15-12-17-1-2-2-1-3-5 4-24 34-18 51-17 0 1 1 1 2 2 2 13 6 27 12 40v4z"/>
   <path class="fil1 str0" d="m3321-995c-13 14-22-6-25-16-1-3-2-5-2-6 4-6 8-11 12-16 2-4 5-7 7-10 9 7 16 17 18 28 2 7 1 23-10 20z"/>
   <path class="fil2 str0" d="m3301-1319c-41 68 69 136 107 64 34-64-63-122-107-64z"/>
   <path class="fil2 str0" d="m3177-1409c-31 62 62 121 104 66 50-65-62-141-104-66z"/>
   <path class="fil2 str0" d="m3242-1237c-6 8-12 17-20 24-5 2-9-1-14-2-4-5-5-12-3-17 6-10 15-17 23-26 1 1 2 1 2 2 6 5 9 13 12 19z"/>
   <path class="fil0" d="m3221-1386c7-8 7-21-1-27-8-7-20-6-27 3-7 8-7 20 1 27s20 5 27-3z"/>
   <ellipse class="fil0" transform="matrix(.090059 .07808 -.07808 .090059 3326.8 -1300.8)" rx="152" ry="167"/>
   <path class="fil2 str0" d="m3201-1271c-17 11-30 44 3 37 7-9 15-16 23-25-7-5-19-7-26-12z"/>
   <path class="fil1 str2" d="m3231-1300c-12-9-33-3-37 13-4 20 27 20 36 31 12 11 11 33 31 31 21-3 16-28 8-44l-38-31z"/>
   <circle class="fil1 str1" cx="3157" cy="-1163" r="423"/>
   <rect class="fil1 str1" x="3808" y="-1445" width="748" height="564" rx="125" ry="125"/>
   <circle class="fil3" cx="4182" cy="-1163" r="42"/>
   <circle class="fil3" cx="4010" cy="-1163" r="42"/>
   <circle class="fil3" cx="4354" cy="-1163" r="42"/>
   <rect class="fil1 str1" x="-1706" y="-1947" width="776" height="776" rx="118" ry="118"/>
   <rect class="fil1 str1" x="-1594" y="-1874" width="552" height="552" rx="84" ry="84"/>
   <path class="fil1 str0" d="m-1492-1732h71v149c-6 39-35 55-81 82"/>
   <rect class="fil1 str0" x="-1351" y="-1782" width="118" height="205" rx="118" ry="118"/>
   <path class="fil1 str0" d="m-1277-1604l60 44"/>
   <path class="fil1 str3" d="m-359-2019l192 111 193 111v222 222l-193 111-192 111-192-111-192-111v-222-222l192-111 192-111z"/>
   <path class="fil1 str4" d="m-561-1455v-249l113 249 116-249-1 249"/>
   <path class="fil1 str4" d="m-122-1682c-33-21-80-22-130-22v125 124c50 0 97-1 130-22 79-49 80-156 0-205z"/>
   <circle class="fil3" cx="-647" cy="-1455" r="22"/>
</svg>
