<?xml version="1.0" encoding="UTF-8"?>
<!DOCTYPE svg  PUBLIC '-//W3C//DTD SVG 1.0//EN'  'http://www.w3.org/TR/2001/REC-SVG-20010904/DTD/svg10.dtd'>
<svg clip-rule="evenodd" fill-rule="evenodd" image-rendering="optimizeQuality" shape-rendering="geometricPrecision" text-rendering="geometricPrecision" version="1.0" viewBox="0 0 1181 1181" xml:space="preserve" xmlns="http://www.w3.org/2000/svg">
 <defs>
  <style type="text/css">
   <![CDATA[
    .str1 {stroke:var(--text-color);stroke-width:41.6654}
    .str2 {stroke:var(--text-color);stroke-width:41.6654;stroke-linecap:round}
    .str0 {stroke:var(--text-color);stroke-width:41.6654;stroke-linecap:round;stroke-linejoin:round}
    .fil0 {fill:none}
   ]]>
  </style>
 </defs>
    <path class="fil0 str0" d="m177 384l414-207 413 207-413 207-414-207z"/>
    <path class="fil0 str0" d="m799 486v128c-33 42-114 71-208 71-95 0-176-29-209-71v-128l209 105 208-105z"/>
    <path class="fil0 str0" d="m265 428v135"/>
    <path class="fil0 str0" d="m265 563l31 93h-62l31-93z"/>
    <path class="fil0 str1" d="m188 726c14 0 28 2 41 6l255 37c-70 47-65 167-3 211l-252 36c-13 4-27 6-41 6-82 0-148-66-148-148 0-81 66-148 148-148zm426 55l338-49c-62 18-107 75-107 142 0 68 45 124 107 142l-344-49c-51-47-43-139 6-186z"/>
    <circle class="fil0 str1" cx="993" cy="874" r="148"/>
    <path class="fil0 str0" d="m679 751l-161 3c-119 31-106 219-3 241h152c-141-23-111-235 12-244z"/>
    <path class="fil0 str2" d="m993 1022c204-164-2-305-68-177-15 30-14 64 16 80 48 24 54-12 75-50"/>
</svg>
