<?xml version="1.0" encoding="UTF-8"?>
<!DOCTYPE svg  PUBLIC '-//W3C//DTD SVG 1.0//EN'  'http://www.w3.org/TR/2001/REC-SVG-20010904/DTD/svg10.dtd'>
<svg clip-rule="evenodd" fill-rule="evenodd" image-rendering="optimizeQuality" shape-rendering="geometricPrecision" text-rendering="geometricPrecision" version="1.0" viewBox="0 0 1181 1181" xml:space="preserve" xmlns="http://www.w3.org/2000/svg">
 <defs>
  <style type="text/css">
   <![CDATA[
    .str1 {stroke:var(--text-color);stroke-width:41.6654;stroke-linecap:round;stroke-linejoin:round}
    .str0 {stroke:var(--text-color);stroke-width:41.6654;stroke-linecap:round;stroke-linejoin:round}
    .str2 {stroke:var(--text-color);stroke-width:20.8307;stroke-linecap:round;stroke-linejoin:round}
    .fil0 {fill:none}
    .fil1 {fill:var(--text-color)}
   ]]>
  </style>
 </defs>
   <path class="fil0 str0" d="m400 486c-21 11-14 16-24 37-26 57-84 122-110 170-15 27 5 55 49 93 86 75 150 83 295 109 83 16 171 37 202 85 10 14 25 9 34-2 36-46 47-81 40-115-5-26-18-51-39-74-56-60-157-112-237-156-53-29-95-54-134-89-31-11-58-31-76-58z"/>
   <path class="fil0 str0" d="m314 786c-14 21-22 29-16 52 52 200 342 508 515 142"/>
   <path class="fil0 str0" d="m610 633c55-31 90-60 119-93 26-11 49-29 65-52 10 6 13 11 15 19 9 29 38 57 65 84 73 71 35 131-27 198-55-59-153-110-233-154l-4-2z"/>
   <path class="fil0 str0" d="m901 718c15 68 19 75-15 145"/>
   <path class="fil0 str1" d="m812 283c34 0 62 28 62 62 0 30-23 56-52 61v-7c0-19-3-37-10-54 0-21-3-42-9-61 3-1 6-1 9-1z"/>
   <path class="fil0 str1" d="m383 283c4 0 7 0 10 1-6 19-9 40-10 61-6 17-10 35-10 54v7c-29-5-51-31-51-61 0-34 27-62 61-62z"/>
   <path class="fil0 str1" d="m812 345c7 17 10 35 10 54 0 85-68 153-153 153h-8c-20 6-41 10-63 10s-44-4-64-10h-8c-84 0-153-68-153-153 0-19 4-37 10-54 1-94 62-173 147-201-1 2-1 5-1 7 0 32 31 57 68 57s68-25 68-57c0-2 0-5-1-8 85 28 147 108 148 202z"/>
   <path class="fil0 str1" d="m598 422c-57-3-101-46-123-1-21 43 13 122 65 122h115c53 0 87-79 66-122-23-45-67-2-123 1z"/>
   <circle class="fil0 str1" cx="598" cy="483" r="27"/>
   <path class="fil0 str1" d="m560 389c47 27 33 17 75 0"/>
   <path class="fil0 str1" d="m665 151c0 32-31 57-68 57s-68-25-68-57c0-27 7-30 33-55 24-23 27-34 27-66 0-7 76 64 76 121z"/>
   <path class="fil1 str2" d="m539 318v2c0 17-13 30-30 30-16 0-29-13-29-30 0-9 4-17 10-22l49 20z"/>
   <path class="fil0 str1" d="m444 279l123 50"/>
   <path class="fil1 str2" d="m657 318v2c0 17 13 30 29 30s30-13 30-30c0-9-4-17-11-22l-48 20z"/>
   <path class="fil0 str1" d="m752 279l-124 50"/>
</svg>
