<?xml version="1.0" encoding="UTF-8"?>
<!DOCTYPE svg  PUBLIC '-//W3C//DTD SVG 1.0//EN'  'http://www.w3.org/TR/2001/REC-SVG-20010904/DTD/svg10.dtd'>
<svg clip-rule="evenodd" fill-rule="evenodd" image-rendering="optimizeQuality" shape-rendering="geometricPrecision" text-rendering="geometricPrecision" version="1.0" viewBox="0 0 945 945" xml:space="preserve" xmlns="http://www.w3.org/2000/svg">
 <defs>
  <style type="text/css">
   <![CDATA[
    .str2 {stroke:var(--text-color);stroke-width:41.6654}
    .str0 {stroke:var(--text-color);stroke-width:41.6654;stroke-linecap:round}
    .str1 {stroke:var(--text-color);stroke-width:41.6654;stroke-linecap:round}
    .fil0 {fill:none}
    .fil2 {fill:var(--text-color)}
    .fil1 {fill:none}
   ]]>
  </style>
 </defs>
    <path class="fil0 str0" d="m682 223c57 49 103 104 83 182-28 82-94 141-146 208-44 58-93 129-163 158-74 30-153-15-207-65-42-39-82-99-72-161 11-71 85-129 133-179 56-60 90-139 163-181 75-45 144-10 209 38z"/>
   <path class="fil0 str0" d="m275 343c-12 15 9 21 19 22s9 6 17-2c2-1 3-3 5-5 3-3 7-7 10-12-9-9-21-15-33-16-7-1-23 2-18 13z"/>
   <path class="fil0 str0" d="m460 193c-38-63 63-96 83-29-23 0-46 6-70 21-5 2-9 5-13 8z"/>
   <path class="fil0 str0" d="m768 350c72 8 51 113-16 87 5-11 10-21 13-32 5-20 6-38 3-55z"/>
   <path class="fil0 str0" d="m412 780c6 17 8 56-18 52-29 1-12-38-22-55 14 3 27 4 40 3z"/>
   <path class="fil0 str0" d="m188 628c-15-9-33-4-49-7s-13-15-12-17c-1-3-3-1-3-6 4-24 33-18 50-16 1 0 2 1 2 1 2 14 7 28 13 41l-1 4z"/>
   <path class="fil0 str0" d="m635 651c-14 14-23-5-25-16-1-3-2-4-3-6 4-5 8-10 12-16 3-3 5-6 8-9 9 7 15 17 18 28 1 6 1 22-10 19z"/>
   <path class="fil1 str0" d="m614 328c-41 68 69 136 107 64 34-64-62-122-107-64z"/>
   <path class="fil1 str0" d="m491 237c-32 63 62 121 104 67 50-65-62-141-104-67z"/>
   <path class="fil1 str0" d="m556 410c-6 7-12 17-20 23-5 2-10 0-14-2-4-5-5-11-4-17 7-10 16-17 24-25l2 2c5 5 8 12 12 19z"/>
   <path class="fil2" d="m535 261c7-9 6-21-1-28-8-6-20-5-27 3-7 9-7 21 1 28 7 6 19 5 27-3z"/>
   <ellipse class="fil2" transform="matrix(.090059 .07808 -.07808 .090059 640.45 345.79)" rx="152" ry="167"/>
   <path class="fil1 str0" d="m514 375c-17 12-29 45 4 38 6-9 15-17 23-25-7-5-19-7-27-13z"/>
   <path class="fil0 str1" d="m544 347c-12-9-33-3-36 12-5 21 26 21 36 32 12 11 11 32 30 30 22-2 16-28 8-44l-38-30z"/>
   <circle class="fil0 str2" cx="471" cy="483" r="423"/>
</svg>
