<?xml version="1.0" encoding="UTF-8" standalone="no"?>
<!DOCTYPE svg PUBLIC "-//W3C//DTD SVG 1.1//EN" "http://www.w3.org/Graphics/SVG/1.1/DTD/svg11.dtd">
<svg width="100%" height="100%" viewBox="0 0 272 272" version="1.1" xmlns="http://www.w3.org/2000/svg" xmlns:xlink="http://www.w3.org/1999/xlink" xml:space="preserve" xmlns:serif="http://www.serif.com/" style="fill-rule:evenodd;clip-rule:evenodd;stroke-linecap:round;stroke-linejoin:round;stroke-miterlimit:1.5;">
    <g transform="matrix(4.16667,0,0,4.16667,-2919.25,-24.6371)">
        <g transform="matrix(0.220371,0,0,0.220371,612.972,-156.953)">
            <path d="M676.706,808.36C676.706,779.43 653.218,755.942 624.288,755.942L467.035,755.942C438.105,755.942 414.618,779.43 414.618,808.36L414.618,965.613C414.618,994.543 438.105,1018.03 467.035,1018.03L624.288,1018.03C653.218,1018.03 676.706,994.543 676.706,965.613L676.706,808.36Z" style="fill:none;stroke:var(--text-color);stroke-width:13.61px;"/>
        </g>
        <g transform="matrix(0.24902,0,0,0.24902,550.256,-178.498)">
            <path d="M778.387,832.983C795.475,832.983 809.348,846.856 809.348,863.943C809.348,881.031 795.475,894.904 778.387,894.904C761.3,894.904 747.427,881.031 747.427,863.943C747.427,846.856 761.3,832.983 778.387,832.983ZM778.387,848.479C786.922,848.479 793.852,855.408 793.852,863.943C793.852,872.478 786.922,879.407 778.387,879.407C769.853,879.407 762.923,872.478 762.923,863.943C762.923,855.408 769.853,848.479 778.387,848.479Z" style="fill:none;stroke:var(--text-color);stroke-width:12.05px;"/>
            <path d="M738.178,904.351C774.016,904.344 814.472,904.049 814.472,904.049L819.582,937.689C819.798,938.505 819.494,940.701 822.96,944.448C820.375,943.576 819.841,943.426 818.561,942.729C818.561,942.729 816.426,941.433 815.531,940.855L815.301,940.707C814.852,940.42 814.394,940.133 813.928,939.849L813.212,939.419C812.816,939.184 812.414,938.951 812.006,938.72L811.24,938.294L810.211,937.741L809.16,937.2L808.363,936.806L807.235,936.271L806.414,935.898L805.506,935.502L804.648,935.142L803.751,934.782L802.805,934.417L801.906,934.087L800.9,933.734L799.947,933.417L798.997,933.116L797.913,932.791L796.92,932.51L795.831,932.221L794.759,931.953L793.715,931.71L792.524,931.451L791.425,931.231L790.323,931.026L789.05,930.811L787.899,930.634L786.743,930.474L785.628,930.335L784.493,930.209L783.365,930.099L782.195,930L781.002,929.915L779.817,929.846L778.59,929.79L777.338,929.749L776.535,929.731C776.036,929.721 775.545,929.716 775.058,929.713L774.696,929.712C744.488,929.663 741.939,942.71 709.154,944.348L708.056,944.4L706.969,944.445L705.894,944.484L704.83,944.516L703.302,944.551L702.274,944.566L701.241,944.574L700.215,944.574L699.198,944.568L697.7,944.544L696.751,944.519L695.756,944.486L694.766,944.444L693.73,944.392C691.629,944.276 689.559,944.103 687.499,943.866L687.493,943.866C686.537,943.773 685.979,943.655 685.406,943.549C673.331,941.321 664.234,935.738 672.941,937.741C674.825,938.174 679.762,938.914 682.314,939.05L642.582,899.96C642.582,899.96 663.735,903.367 692.383,904.049C699.291,904.213 709.964,904.298 722.18,904.332L722.114,881.012L657.137,881.489L738.178,794.306L738.178,904.351ZM722.129,834.15L722.129,866.368L692.496,866.368L722.129,834.15Z" style="fill:none;stroke:var(--text-color);stroke-width:12.05px;"/>
        </g>
    </g>
</svg>
