<svg width="100%" height="100%" viewBox="0 0 272 272" version="1.1" xmlns="http://www.w3.org/2000/svg" xmlns:xlink="http://www.w3.org/1999/xlink" xml:space="preserve" xmlns:serif="http://www.serif.com/" style="fill-rule:evenodd;clip-rule:evenodd;stroke-linecap:round;stroke-linejoin:round;stroke-miterlimit:1;">
    <defs>
        <style type="text/css">
            .stroke {stroke:var(--text-color)}
        </style>
    </defs>
    <g id="RVM-Logo" serif:id="RVM Logo" transform="matrix(6.56459,0,0,6.56459,-2527.5,-3953.59)">
        <g transform="matrix(0.277359,0,0,0.277359,-126.357,-143.393)">
            <rect class="stroke" x="1890.15" y="2713.07" width="45.585" height="69.539" style="fill:none;stroke-width:6.87px;"/>
        </g>
        <g transform="matrix(0.277359,0,0,0.277359,-126.898,-143.39)">
            <rect class="stroke" x="1904.58" y="2796.35" width="20.64" height="9.071" style="fill:none;stroke-width:6.87px;"/>
        </g>
        <g transform="matrix(0.277359,0,0,0.277359,-127.174,-143.339)">
            <rect class="stroke" x="1880.61" y="2700.95" width="81.348" height="123.727" style="fill:none;stroke-width:6.87px;"/>
        </g>
        <g transform="matrix(0.223422,0,0,0.277359,-23.6315,-143.038)">
            <path class="stroke" d="M1899.69,2726.03L1930.27,2726.03" style="fill:none;stroke-width:7.56px;"/>
        </g>
        <g transform="matrix(0.223422,0,0,0.277359,-23.6315,-139.155)">
            <path class="stroke" d="M1899.69,2726.03L1930.27,2726.03" style="fill:none;stroke-width:7.56px;"/>
        </g>
        <g transform="matrix(0.223422,0,0,0.277359,-23.6315,-135.272)">
            <path class="stroke" d="M1899.69,2726.03L1930.27,2726.03" style="fill:none;stroke-width:7.56px;"/>
        </g>
        <g transform="matrix(0.327858,0,0,0.327858,-224,-282.858)">
            <path class="stroke" d="M1944.32,2748.17L1945.77,2748.17" style="fill:none;stroke-width:5.81px;"/>
        </g>
    </g>
</svg>
