<svg width="100%" height="100%" viewBox="0 0 272 272" version="1.1" xmlns="http://www.w3.org/2000/svg" xmlns:xlink="http://www.w3.org/1999/xlink" xml:space="preserve" xmlns:serif="http://www.serif.com/" style="fill-rule:evenodd;clip-rule:evenodd;stroke-linecap:round;stroke-linejoin:round;stroke-miterlimit:1.5;">
    <defs>
        <style type="text/css">
            .stroke {stroke:var(--text-color)}
        </style>
    </defs>
    <g transform="matrix(4.85087,0,0,4.85087,-4107.78,-56.467)">
        <g transform="matrix(0.24,0,0,0.24,-598,-190)">
            <path class="stroke" d="M6136.52,857.454L6136.52,1056.23" style="fill:none;stroke-width:10.74px;"/>
        </g>
        <g transform="matrix(0.24,0,0,0.24,-598,-190)">
            <path class="stroke" d="M6136.52,857.454L6136.52,1056.23" style="fill:none;stroke-width:10.74px;"/>
        </g>
        <g transform="matrix(0.24,0,0,0.24,-598,-190)">
            <path class="stroke" d="M6106.61,876.175L6136.6,906.161L6166.74,876.013" style="fill:none;stroke-width:10.74px;"/>
        </g>
        <g transform="matrix(0.24,0,0,-0.24,-598,269.406)">
            <path class="stroke" d="M6106.61,876.175L6136.6,906.161L6166.74,876.013" style="fill:none;stroke-width:10.74px;"/>
        </g>
        <g transform="matrix(0.12,0.207846,-0.207846,0.12,337.277,-1350.66)">
            <path class="stroke" d="M6136.52,857.454L6136.52,1056.23" style="fill:none;stroke-width:10.74px;"/>
        </g>
        <g transform="matrix(0.12,0.207846,-0.207846,0.12,337.277,-1350.66)">
            <path class="stroke" d="M6136.52,857.454L6136.52,1056.23" style="fill:none;stroke-width:10.74px;"/>
        </g>
        <g transform="matrix(0.12,0.207846,-0.207846,0.12,337.277,-1350.66)">
            <path class="stroke" d="M6106.61,876.175L6136.6,906.161L6166.74,876.013" style="fill:none;stroke-width:10.74px;"/>
        </g>
        <g transform="matrix(0.12,0.207846,0.207846,-0.12,-60.5796,-1120.96)">
            <path class="stroke" d="M6106.61,876.175L6136.6,906.161L6166.74,876.013" style="fill:none;stroke-width:10.74px;"/>
        </g>
        <g transform="matrix(-0.12,0.207846,-0.207846,-0.12,1810.11,-1120.98)">
            <path class="stroke" d="M6136.52,857.454L6136.52,1056.23" style="fill:none;stroke-width:10.74px;"/>
        </g>
        <g transform="matrix(-0.12,0.207846,-0.207846,-0.12,1810.11,-1120.98)">
            <path class="stroke" d="M6136.52,857.454L6136.52,1056.23" style="fill:none;stroke-width:10.74px;"/>
        </g>
        <g transform="matrix(-0.12,0.207846,-0.207846,-0.12,1810.11,-1120.98)">
            <path class="stroke" d="M6106.61,876.175L6136.6,906.161L6166.74,876.013" style="fill:none;stroke-width:10.74px;"/>
        </g>
        <g transform="matrix(-0.12,0.207846,0.207846,0.12,1412.25,-1350.69)">
            <path class="stroke" d="M6106.61,876.175L6136.6,906.161L6166.74,876.013" style="fill:none;stroke-width:10.74px;"/>
        </g>
    </g>
</svg>
