<svg width="100%" height="100%" viewBox="0 0 272 272" version="1.1" xmlns="http://www.w3.org/2000/svg" xmlns:xlink="http://www.w3.org/1999/xlink" xml:space="preserve" xmlns:serif="http://www.serif.com/" style="fill-rule:evenodd;clip-rule:evenodd;stroke-linejoin:round;stroke-miterlimit:2;">
    <defs>
      <style type="text/css">
        <![CDATA[
          .fil {stroke:var(--text-color)}
        ]]>
      </style>
    </defs>
    <g transform="matrix(4.16667,0,0,4.16667,-3123.59,-352.126)">
        <g transform="matrix(1,0,0,1,205.742,-391.222)">
            <path class="fil" d="M572.248,484.196C553.48,486.448 542.475,505.697 554.23,525.486C552.729,528.489 550.727,530.647 548.975,532.242C552.886,534.164 559.625,533.988 563.99,532.242C568.821,534.658 573.32,535.334 577.491,535.175C584.49,534.908 592.005,531.775 596.984,526.407C608.283,514.225 604.229,498.76 597.472,491.252" style="fill:none;stroke-width:3px;"/>
        </g>
        <g transform="matrix(1,0,0,1,205.742,-391.222)">
            <path class="fil" d="M576.002,480.442C578.075,480.442 579.755,482.122 579.755,484.196C579.755,486.269 578.075,487.949 576.002,487.949C573.928,487.949 572.248,486.269 572.248,484.196C572.248,482.122 573.928,480.442 576.002,480.442Z" style="fill:none;stroke-width:3px;stroke-linejoin:miter;"/>
        </g>
        <g transform="matrix(1,0,0,1,205.742,-391.222)">
            <path class="fil" d="M594.77,484.947C596.843,484.947 598.523,486.627 598.523,488.7C598.523,490.773 596.843,492.454 594.77,492.454C592.697,492.454 591.016,490.773 591.016,488.7C591.016,486.627 592.697,484.947 594.77,484.947Z" style="fill:none;stroke-width:3px;stroke-linejoin:miter;"/>
        </g>
        <g transform="matrix(1,0,0,1,205.742,-391.222)">
            <path class="fil" d="M573.574,501.028C573.574,499.273 574.997,497.85 576.752,497.85C578.507,497.85 579.93,499.273 579.93,501.028L579.93,506.401L585.302,506.401C587.057,506.401 588.48,507.824 588.48,509.578C588.48,511.333 587.057,512.756 585.302,512.756L579.93,512.756L579.93,518.129C579.93,519.884 578.507,521.307 576.752,521.307C574.997,521.307 573.574,519.884 573.574,518.129L573.574,512.756L568.202,512.756C566.447,512.756 565.024,511.333 565.024,509.578C565.024,507.824 566.447,506.401 568.202,506.401L573.574,506.401L573.574,501.028Z" style="fill:none;stroke-width:3px;stroke-linejoin:miter;"/>
        </g>
    </g>
</svg>
