<svg width="100%" height="100%" viewBox="0 0 272 272" version="1.1" xmlns="http://www.w3.org/2000/svg" xmlns:xlink="http://www.w3.org/1999/xlink" xml:space="preserve" xmlns:serif="http://www.serif.com/" style="fill-rule:evenodd;clip-rule:evenodd;stroke-linecap:round;stroke-linejoin:round;stroke-miterlimit:1.5;">
    <g transform="matrix(4.76395,0,0,4.76395,-4376.17,-63.8803)">
        <g transform="matrix(0.24,0,0,0.24,-607.567,-194.078)">
            <path d="M6385.02,897.459L6418.2,1069.21L6537.48,1069.21L6570.66,897.459" style="fill:none;stroke:var(--text-color);stroke-width:10.93px;"/>
        </g>
        <g transform="matrix(0.24,0,0,0.24,-603.402,-198.831)">
            <path d="M6499.9,989.634C6494.28,988.042 6484.22,988.564 6476.33,992.109C6466.89,996.35 6462.93,995.575 6462.93,995.575C6441.53,990.668 6445.94,955.247 6469.57,951.115C6472.28,950.64 6470.64,947.916 6470.2,946.781C6466.61,937.455 6422.07,948.713 6410.09,971.583C6403.61,983.96 6405.43,1003.14 6405.43,1003.14L6418.2,1069.21L6502.48,1069.21L6515.24,1003.14C6515.24,1003.14 6516.56,994.344 6499.9,989.634Z" style="fill:none;stroke:var(--text-color);stroke-width:10.93px;"/>
        </g>
    </g>
</svg>
