<?xml version="1.0" encoding="UTF-8"?>
<!DOCTYPE svg  PUBLIC '-//W3C//DTD SVG 1.0//EN'  'http://www.w3.org/TR/2001/REC-SVG-20010904/DTD/svg10.dtd'>
<svg clip-rule="evenodd" fill-rule="evenodd" image-rendering="optimizeQuality" shape-rendering="geometricPrecision" text-rendering="geometricPrecision" version="1.0" viewBox="0 0 1181 1181" xml:space="preserve" xmlns="http://www.w3.org/2000/svg">
 <defs>
  <style type="text/css">
   <![CDATA[
    .str0 {stroke:var(--text-color);stroke-width:41.6654;stroke-linecap:round;stroke-linejoin:round}
    .fil0 {fill:none}
   ]]>
  </style>
 </defs>
   <path class="fil0 str0" d="m343 782h134v-129h113v-127h-113v-111h-134v111h-113v127h113v129z"/>
   <path class="fil0 str0" d="m941 639c-23-31-54-52-93-64 28-13 50-31 65-56s23-54 23-88c0-61-21-110-62-145-39-33-87-49-146-49h-385v124l4 3h366c28 0 50 8 66 24s24 35 24 57c0 23-8 42-24 58-16 15-38 23-66 23h-56v127h83c30 0 54 9 74 27 19 17 29 39 29 66 0 25-10 47-30 65-20 17-44 26-73 26h-263v-1h-134v128h411c65 0 119-19 160-58 41-38 62-90 62-154 0-45-12-82-35-113z"/>
</svg>
