<?xml version="1.0" encoding="UTF-8"?>
<!DOCTYPE svg  PUBLIC '-//W3C//DTD SVG 1.0//EN'  'http://www.w3.org/TR/2001/REC-SVG-20010904/DTD/svg10.dtd'>
<svg clip-rule="evenodd" fill-rule="evenodd" image-rendering="optimizeQuality" shape-rendering="geometricPrecision" text-rendering="geometricPrecision" version="1.0" viewBox="0 0 1181 1181" xml:space="preserve" xmlns="http://www.w3.org/2000/svg">
 <defs>
  <style type="text/css">
   <![CDATA[
    .fil0 {fill:var(--text-color)}
   ]]>
  </style>
 </defs>
   <path class="fil0" d="m1001 314c-40 0-96-1-167-1-70 0-126 1-166 1-10 0-19 2-27 6-10 5-19 12-27 21-14 13-19 35-25 57-2 11-5 21-8 32v1c-5 12-8 25-11 38-4 17-8 34-15 51 0 2-1 4-1 6-1 8-1 15 2 21 2 4 5 8 9 9h368c11-1 21-6 29-14 12-11 20-26 24-42h1l37-134c2-10 3-18 3-25 0-10-1-16-4-20-2-3-6-5-10-6s-8-1-12-1zm0-42h-333c-33 0-61 17-84 40-29 29-31 69-43 106-10 29-15 60-25 89-13 37 3 83 45 91h372c49-3 82-45 94-87l37-135c16-68-11-103-63-104zm-551 637c-86 0-171 1-256-1-68-1-95-42-75-130 9-32 29-111 35-137 17-68 31-139 101-176 21-11 44-18 67-21 43-3 85 0 128-1 18 0 24 7 20 23-9 36-18 70-27 105-13 45 8 91 73 93 80 2 161 0 241 1h92c16 0 25 5 20 23-9 33-39 149-78 182-28 23-58 39-96 39h-246 1zm-77-41c40-1 73-1 77-1h245v1c13 0 24-3 35-8 12-5 23-13 34-22 23-19 45-88 57-132h-64-74c-56 1-112 1-168-1-14 0-27-2-38-5-27-8-47-23-61-42-13-19-19-42-19-65 1-11 2-23 5-33h1c4-18 9-35 13-51 2-6 4-14 6-24-7 0-14 0-20-1-26 0-51 0-77 2-8 1-17 2-26 5-8 3-16 6-24 10l-1 1c-49 26-63 82-76 137l-3 12c-4 14-11 43-19 72-6 24-12 48-17 64-7 33-7 55 0 67 5 8 17 12 36 13 59 1 118 1 178 1z"/>
</svg>
