<?xml version="1.0" encoding="UTF-8"?>
<!DOCTYPE svg  PUBLIC '-//W3C//DTD SVG 1.0//EN'  'http://www.w3.org/TR/2001/REC-SVG-20010904/DTD/svg10.dtd'>
<svg clip-rule="evenodd" fill-rule="evenodd" image-rendering="optimizeQuality" shape-rendering="geometricPrecision" text-rendering="geometricPrecision" version="1.0" viewBox="0 0 551 551" xml:space="preserve" xmlns="http://www.w3.org/2000/svg">
 <defs>
  <style type="text/css">
   <![CDATA[
    .fil0 {fill:var(--text-color)}
   ]]>
  </style>
 </defs>
   <path class="fil0" d="m442 109c-18-19-44-32-73-32-55 0-100 45-100 101 0 7 1 15 3 22-83-4-157-44-206-104-9 15-14 32-14 50 0 35 18 65 45 83-17 0-32-5-46-12v1c0 49 35 89 81 98-9 2-18 4-27 4-6 0-12-1-19-2 13 40 50 69 94 69-34 27-77 43-124 43-8 0-16 0-24-1 44 28 97 45 153 45 184 0 285-153 285-285 0-4 0-9-1-13 20-14 37-32 50-52-18 8-37 14-57 16 21-12 36-32 44-55-19 11-41 20-64 24zm-38 304c-52 53-126 88-219 88-30 0-59-4-87-12-29-8-56-21-80-36-9-6-15-16-14-27 2-16 16-27 31-25 4 1 7 1 10 1h11c19 0 37-3 55-9-2-1-4-2-5-3-21-16-37-37-45-62-2-5-3-10-2-15 1-2 1-4 2-5l-9-9c-18-22-28-50-28-81v-1c0-5 1-9 3-14 2-3 4-6 7-8-6-15-10-32-10-49 0-11 2-22 5-33s7-21 13-31c1-3 4-5 6-8 12-9 30-8 39 4 23 28 51 51 83 67 23 12 47 20 72 24 2-32 16-61 37-82 23-23 55-37 90-37 18 0 35 3 51 10 11 5 21 11 30 19 5-2 10-3 15-5 10-4 18-8 27-13 6-4 15-5 22-3 15 5 23 21 18 35 0 2-1 4-2 6 2 1 3 1 5 2 12 9 16 26 7 39-7 11-16 22-25 32-6 6-13 12-19 17-1 79-33 163-94 224z"/>
</svg>
