<?xml version="1.0" encoding="UTF-8"?>
<!DOCTYPE svg  PUBLIC '-//W3C//DTD SVG 1.0//EN'  'http://www.w3.org/TR/2001/REC-SVG-20010904/DTD/svg10.dtd'>
<svg clip-rule="evenodd" fill-rule="evenodd" image-rendering="optimizeQuality" shape-rendering="geometricPrecision" text-rendering="geometricPrecision" version="1.0" viewBox="0 0 1181 1181" xml:space="preserve" xmlns="http://www.w3.org/2000/svg">
 <defs>
  <style type="text/css">
   <![CDATA[
    .fil0 {fill:var(--text-color)}
   ]]>
  </style>
 </defs>
   <path class="fil0" d="m100 499c1-4 3-8 5-12 1-1 2-3 3-4l10-12c2-2 3-4 5-6 4-4 8-6 13-8v-1c6-2 14-4 21-4h183c7 0 13 1 18 4 21-26 45-47 72-64 28-18 60-30 95-36 28-5 57-6 84-2 29 5 56 16 82 33 17 11 32 25 44 40 3 3 5 6 8 10 16-17 34-31 53-42 28-17 59-28 95-34 30-5 60-7 90-2s59 16 87 35c25 17 45 37 61 61 15 24 25 52 30 82v3c5 41 1 78-11 112s-32 66-60 95c-20 20-42 36-66 49-25 13-51 22-79 28h-1c-12 3-22 3-31 4-5 1-11 1-13 1-3 1-6 1-9 1-26-1-52-6-76-14-26-9-50-23-72-42l-1-1c-11-9-21-19-29-30-18 20-38 36-60 50-29 17-62 28-98 33h-1c-30 4-60 3-88-4s-55-19-80-38c-23-18-42-39-56-63-12-21-20-45-24-72-1 1-2 1-3 1-2 0-3-1-4-1h-109c-9 0-17-3-24-7-6-4-11-10-14-16-2-3-3-5-3-8-2-4-2-8-2-12v-5l-81 1c-9 0-18-3-25-8-6-4-11-9-14-15s-5-13-5-20c0-9 3-17 8-25 0 0 1-1 1-2l10-13c5-7 12-12 19-15s14-5 21-5h21zm42 14c-2 0-3-1-2-3l11-14c1-1 3-2 6-2h183c2 0 3 1 2 3l-9 13c-1 2-3 3-5 3h-186zm481 122h-100c-11 0-13-7-10-16 7-16 19-43 27-56 1-3 5-8 12-8h166c8-24 20-46 36-67 37-50 83-75 144-86 53-9 102-4 147 26 40 28 66 66 72 115 9 70-11 126-59 175-34 34-76 56-123 65-14 3-28 4-42 5-46-1-89-14-125-45-26-22-43-49-52-80-6 12-13 23-21 34-37 49-86 80-147 88-51 7-97-3-139-34-38-29-59-67-65-114-7-56 10-107 44-151 36-48 85-78 144-89 48-9 95-3 136 25 28 18 47 43 60 73 3 4 1 7-5 8-33 9-55 15-87 23-7 2-8 3-15-5-7-9-13-15-24-20-32-16-64-11-93 8-35 23-53 56-52 98 0 41 28 75 69 81 35 4 64-8 88-34 4-6 8-12 14-19zm393-55c-1-7-1-12-2-17-9-51-56-80-105-68-48 10-78 41-90 89-9 40 11 81 48 98 28 12 56 10 84-4 40-21 62-54 65-98zm-828 27c-2 0-2-1-1-3l7-13c1-1 3-3 5-3h103c2 0 3 2 3 4l-1 12c0 2-2 4-3 4l-113-1zm-124-47c-2 0-3-1-2-3l11-13c1-2 4-3 6-3h235c2 0 3 1 2 3l-4 12c-1 2-3 3-5 3l-243 1zm910 20v-3-6c-1-1-1-2-1-2v-1c-3-12-10-22-19-27-9-6-21-9-33-6h-2-2c-15 4-28 11-37 20-10 9-16 22-20 39l-1 1c-2 10 0 20 4 29 4 8 11 15 20 20v-1c8 4 16 6 24 5 8 0 16-2 25-7h1c13-7 23-16 30-26 6-10 10-21 11-35z"/>
</svg>
