<?xml version="1.0" encoding="UTF-8"?>
<!DOCTYPE svg  PUBLIC '-//W3C//DTD SVG 1.0//EN'  'http://www.w3.org/TR/2001/REC-SVG-20010904/DTD/svg10.dtd'>
<svg clip-rule="evenodd" fill-rule="evenodd" image-rendering="optimizeQuality" shape-rendering="geometricPrecision" text-rendering="geometricPrecision" version="1.0" viewBox="0 0 1181 1181" xml:space="preserve" xmlns="http://www.w3.org/2000/svg">
 <defs>
  <style type="text/css">
   <![CDATA[
    .str0 {stroke:var(--text-color);stroke-width:41.6654;stroke-linejoin:round}
    .fil0 {fill:none}
   ]]>
  </style>
 </defs>
  <path class="fil0 str0" d="m136 136h910v910h-910v-910zm308 718c14 24 26 44 55 44s46-11 46-54v-291h86v292c0 89-52 129-128 129-68 0-108-35-128-78l69-42zm233 33l70-40c18 30 42 51 84 51 36 0 58-17 58-42 0-29-23-39-62-56l-21-10c-62-26-103-59-103-129 0-64 49-113 125-113 54 0 94 19 122 69l-67 43c-15-27-30-37-55-37s-41 16-41 37c0 25 16 36 53 52l21 9c73 31 114 63 114 134 0 77-61 119-142 119-79 0-131-38-156-87z"/>
</svg>
