<?xml version="1.0" encoding="UTF-8"?>
<!DOCTYPE svg  PUBLIC '-//W3C//DTD SVG 1.0//EN'  'http://www.w3.org/TR/2001/REC-SVG-20010904/DTD/svg10.dtd'>
<svg clip-rule="evenodd" fill-rule="evenodd" image-rendering="optimizeQuality" shape-rendering="geometricPrecision" text-rendering="geometricPrecision" version="1.0" viewBox="0 0 1181 1181" xml:space="preserve" xmlns="http://www.w3.org/2000/svg">
 <defs>
  <style type="text/css">
   <![CDATA[
    .str0 {stroke:var(--text-color);stroke-width:41.6654;stroke-linejoin:round}
    .fil0 {fill:none}
   ]]>
  </style>
 </defs>
   <path class="fil0 str0" d="m278 260c-1 0-1 0-2-1-23 33-47 65-70 97-40 56-60 118-62 186 0 51 8 100 25 148 52 149 158 246 298 309 87 39 179 47 273 30 79-15 147-51 198-114 29-35 56-74 83-111 1-1 1-2 0-1-19 15-38 34-60 48-80 54-169 66-263 58-56-4-110-20-161-45-79-38-148-90-202-160-52-66-83-140-95-223-9-62-4-122 19-180 6-14 13-27 19-41zm754 307l-8 8c-12 9-23 20-36 28-63 40-132 47-204 36-45-6-86-23-124-46-87-54-148-128-170-231-11-48-10-96 9-143 4-10 8-20 13-29-25 30-48 62-69 94-22 33-32 70-33 110-2 59 12 116 44 166 79 125 192 193 344 183 49-4 94-20 133-50 44-34 69-83 101-126zm5-177c-1 0-1-1-2-1-8 6-15 12-23 18-41 25-86 31-132 22-77-15-136-59-171-130-24-48-30-98-7-149v-6c-15 21-28 39-41 58-5 8-10 16-13 25-19 56-9 109 21 158 42 67 103 107 183 115 45 4 89-5 124-36 18-15 31-35 46-54 5-6 10-13 15-20z"/>
</svg>
