<?xml version="1.0" encoding="UTF-8"?>
<!DOCTYPE svg  PUBLIC '-//W3C//DTD SVG 1.0//EN'  'http://www.w3.org/TR/2001/REC-SVG-20010904/DTD/svg10.dtd'>
<svg clip-rule="evenodd" fill-rule="evenodd" image-rendering="optimizeQuality" shape-rendering="geometricPrecision" text-rendering="geometricPrecision" version="1.0" viewBox="0 0 1181 1181" xml:space="preserve" xmlns="http://www.w3.org/2000/svg">
 <defs>
  <style type="text/css">
   <![CDATA[
    .str0 {stroke:var(--text-color);stroke-width:41.6654;stroke-linecap:round;stroke-linejoin:round}
    .fil0 {fill:none}
   ]]>
  </style>
 </defs>
   <path class="fil0 str0" d="m532 831c-74-80-84-84-135-184-21 27-22 53-26 85-3 22-10 39-36 16-68-58-42-190-19-257-44-53-53-106-76-172-23-33-33-42-56-76-37-55 11-73 57-59 27 9 50 24 78 46 93-17 209 69 293 176 62 79 95 163 143 265 101 46 144 64 221 146-64 6-87 7-149 24 42 47 53 55 105 88 26 16 38 26 78 72"/>
   <path class="fil0 str0" d="m343 314c13 7 20 17 21 30"/>
</svg>
